/* XPM */
static char * chato_xpm[] = {
"55 55 134 2",
"  	c #071418",
". 	c #000000",
"+ 	c #1D0D0D",
"@ 	c #000101",
"# 	c #251212",
"$ 	c #1F0E0E",
"% 	c #0E0505",
"& 	c #221010",
"* 	c #241212",
"= 	c #210F0F",
"- 	c #1A0B0B",
"; 	c #241111",
"> 	c #221111",
", 	c #200E0E",
"' 	c #231010",
") 	c #211010",
"! 	c #050303",
"~ 	c #190A0A",
"{ 	c #010405",
"] 	c #180C0C",
"^ 	c #0F0707",
"/ 	c #220F0F",
"( 	c #1D0D0E",
"_ 	c #1A0D0E",
": 	c #050607",
"< 	c #1E0E0E",
"[ 	c #120809",
"} 	c #040101",
"| 	c #16090A",
"1 	c #866565",
"2 	c #7D5E5E",
"3 	c #050202",
"4 	c #1D0E0F",
"5 	c #160C0C",
"6 	c #1B0E0E",
"7 	c #150B0B",
"8 	c #010506",
"9 	c #231212",
"0 	c #231111",
"a 	c #1A0C0C",
"b 	c #020608",
"c 	c #1E0F10",
"d 	c #200F0F",
"e 	c #1C0E0E",
"f 	c #190B0B",
"g 	c #1B0B0B",
"h 	c #1B0A0B",
"i 	c #081317",
"j 	c #1C0E0F",
"k 	c #1B0B0C",
"l 	c #180B0B",
"m 	c #1F1010",
"n 	c #190D0D",
"o 	c #1A0F10",
"p 	c #061317",
"q 	c #201010",
"r 	c #1E0D0E",
"s 	c #1C0D0E",
"t 	c #160B0C",
"u 	c #010304",
"v 	c #0B0303",
"w 	c #170A0A",
"x 	c #130808",
"y 	c #170909",
"z 	c #0D0505",
"A 	c #130707",
"B 	c #160909",
"C 	c #000102",
"D 	c #020202",
"E 	c #0C0404",
"F 	c #070202",
"G 	c #090303",
"H 	c #1B0C0C",
"I 	c #1F0F0F",
"J 	c #120606",
"K 	c #1E0D0D",
"L 	c #1D0E0E",
"M 	c #1C0C0C",
"N 	c #180A0A",
"O 	c #0F0606",
"P 	c #261313",
"Q 	c #281616",
"R 	c #1C0D0D",
"S 	c #251313",
"T 	c #271616",
"U 	c #0A1014",
"V 	c #091114",
"W 	c #765959",
"X 	c #826262",
"Y 	c #100606",
"Z 	c #071417",
"` 	c #030202",
" .	c #140808",
"..	c #061014",
"+.	c #1F0D0D",
"@.	c #071216",
"#.	c #071317",
"$.	c #110606",
"%.	c #1E0808",
"&.	c #190C0C",
"*.	c #443232",
"=.	c #816161",
"-.	c #251919",
";.	c #1E0909",
">.	c #200B0B",
",.	c #251111",
"'.	c #0E0404",
").	c #846363",
"!.	c #180F0F",
"~.	c #1E1010",
"{.	c #261616",
"].	c #1E0F0F",
"^.	c #301F1F",
"/.	c #2A1919",
"(.	c #1F0909",
"_.	c #010303",
":.	c #261515",
"<.	c #251414",
"[.	c #261414",
"}.	c #1F0B0B",
"|.	c #060202",
"1.	c #060303",
"2.	c #271515",
"3.	c #271414",
"4.	c #210D0D",
"5.	c #130404",
"6.	c #190505",
"7.	c #1B0707",
"8.	c #010000",
"9.	c #1B0808",
"0.	c #0B0404",
"a.	c #1C0808",
"b.	c #0D0303",
"c.	c #140707",
"                                                                                                              ",
"                                                                                                              ",
"                                                        . .                                                   ",
"                                                      . . . .                                                 ",
"                                                    . . + @ .                                                 ",
"                                                . . . # $ % . .                                               ",
"                                              . . . & * = - . . .                                             ",
"                                            . . . # # ; > , - . .                                             ",
"                                          . . . # # # # ; ' ) ! . .                                           ",
"                                      . . . # # # # # # # ; & ~ { . .                                         ",
"                                    . . . # # # # # # # # * * $ ] ^ . .                                       ",
"                                . . . # # # # # # # # # # # # / ( _ : .                                       ",
"                              . . # # # # # # # # # # # # # # # & < [ . .                                     ",
"                            . . # # # # # # # . . . % } # # # # ; ) | + . .                                   ",
"                          . . . # # # # # # . . 1 . 2 3 . # # # # > 4 $ 5 . .                                 ",
"                        . . . # # # # # # . . 1 1 . 1 1 . . # # # * ' ) 6 7 . 8                               ",
"                      . . . # # # # # # # . 1 1 1 . 1 1 1 . # # # # 9 0 4 a . . b                             ",
"                    . . . # # # # # # # # . . . . . . . . . # # # # # * c ( d . . .                           ",
"                  . . . . # # # # # # # # . . 1 1 . 1 1 1 . # # # # # # e < & f d . . .                       ",
"                . . . . # # # # # # # # # # . . . . . . . . # # # # # # f g > < d h . . . i                   ",
"              . . . . # # # # # # # # # # # # # # # # # # # # # # # # # = f 9 9 > d j k . . .                 ",
"            . . # # # # # # # # # # # # # # # # # # # # # # # # # # # # # $ l 0 0 ' = m n o . . .             ",
"        p . . # # # # # # # # # # # # # # # # # # # # # # # # # # # # # # > > & # 0 9 q r s t u . .           ",
"        u . & # # # # # # # # # # # # # # # # # % } v % # # # # # # # w % x 0 * # ; ; 0 y g 4 4 . .           ",
"      . . . . . . . z A # B . . . . . . # # . . . . . . . A # . . . . . . . . y # . . . . . . . . . C         ",
"      . . D E d ; . . . . . . # # 0 . . . . . ) ) # 0 d . . . . F G ) H ' I . . . . 0 I + H $ + J . . .       ",
"      . . K + ' 0 ; & K L M # # # 0 d & = $ , 0 ' * * ; > 0 0 < d d ; I ; & = < ) d ; & d / 0 & y a & . .     ",
"      . M q = * N # # ) & / # # # ; ' 0 ; = ; ; * # # # 0 0 # = 0 & * ) # ; & = ' ' # 0 ' * 0 0 = < > O .     ",
"      . I 0 > # & * # ' 9 > # # # # 0 * * 0 * # # # # # * ; # 0 * ; # 0 # * * 0 * * # * ; # * * ' & 0 $ .     ",
"      . & 9 * ; 0 # # * * * # # # P P # # # # # # # # # # # # # * # # # # # # # # # # # # # & ; * ; ; ) .     ",
"    . . 0 * # # # # # # # # # # # Q # # # # # # # # # # # # # # # # # # # # # # # # # # # # R # * * * & .     ",
"    . . # # # # # # # # # # # # S T # # # # # # # # # # # # # # # # # # # # # # # # # # # & - * ; # * < . U   ",
"    . . # # # # . . . . . . . . . . . # # # # # # # # # # # # # # # # # # # # # # # # # # * w 0 & # # & . V i ",
"    . . # # # # . 1 1 1 1 1 1 . W X . . . . # # # # # # # # # # # # # # # # # # # # # # # * 0 d = * # Y .   Z ",
"    . ` # # # # . 1 1 1 1 1 1 . 1 1 1 1 1 . # # # # # # # # # # # # # # # & * # # # # # # # > d 0 # # ~ .     ",
"    .  .# # # # . 1 1 1 1 1 1 . 1 1 1 1 1 . # # # # # # # # # # # A . . . . . . . # # # # # * & * # # & .     ",
"  ... - # # # # . 1 1 1 1 1 1 . 1 1 1 1 1 . # # # # # # # # # . . . . . 0 + +.. . . # # # # # & # # # & .     ",
"  @.. M # # # # . 1 1 1 . . . . . . . 1 1 . # # # # # # # # . . . $ 0 0 * ) ) I = . . # # # # 0 # # # 0 .     ",
"  #.. d # # # # . . . . . 1 1 . 1 1 . . . . . # # # # # # . . . 0 / * ; * ; 0 ' & $.. . # # # * # # # * .     ",
"  Z . I 0 # # # . 1 1 1 1 1 1 . 1 1 1 1 1 1 . # # # # # # . %.%.' ' # # ; # * > d &.Y . # # # # # # # # .     ",
"    . & 9 # # # . 1 1 1 1 1 1 . 1 1 . . 1 1 . # # # # # . . # # ; ; # # %./ # * q + G . # # # # # # # # .     ",
"    . * # # # # . 1 1 1 1 1 1 . 1 *.. . 1 1 . # # # # . . # %.%.# # # # # ; # * & = l . . # # # # # # # .     ",
"    . # # # # # . 1 1 1 1 1 1 . =.-.. . 1 . . # # # # . # # # # ;.>.%.# # ,.# # 0 > < '.. # # # # # # # .     ",
"    . # # # # # . 1 1 . . 1 1 . ).!.. . 1 . # # # # # . # # # # # ; # # # # # # * & / M . # # # # # # # .     ",
"    . & # # # # . . . . . . . . . . . . . . # # # # # . # # # # # ,.# # # # # # # * * < . . # # # # # # .     ",
"  . . = # # # # & & # d ~.{.H M ].R - $ ^./.# # # # . . # # # . . # # # ;.(.# # # # # / % . # # # # # # .     ",
"  . _.= ; # # # & * * = m :.< I d d K <.T [.# # # # . # # # # . . . # # # # # # # }.# & |.. # # # ; # # .     ",
"  . 1.+.; # # # ; ; # 0 > 2.; P # # ' 3.S # # # # # . # # # # . . . # # # # # # ; 4.# d 5.. # # # ' 0 0 .     ",
"  . . , ; # # # # # # # * P * * # # # # # # # # # . . # # # # # # # # # # # # # # # * > 6.. d # # ' > # .     ",
"    . $ ; # # # # # # # . # # # # # # # # # # # # . # # # # # # # # # # # # # # # # # ; 7.. 8.# # $ / # .     ",
"    . Y 0 # # # # # # # . # # # # # # # # # # # # . # %.# # # # # # # # # # # # # # # 0 9.. . # # f < # . .   ",
"    . 0.# # # # # # # # . # # # # # # . # # # # # . . %.# %.%.# # # # # %.%.# # # # ; ' a.. . ' #  . .* .     ",
"    . $ # # # # # # # # # # # # # # # # # # # # # # . # # # %.%.%.# # # # # # # # # %.' b.. # # # < A & .     ",
"    . d * # # # # # # # # # # # # # # # # # # # # # . # # # # # # # # # # # # # # # # # . . . # ; L = ' .     ",
"    . . . . . . . . . . . . . . . . . . . . . . . . . . . . . . . . . . . . . . . . . . . . . . c.O . . .     "};
