/* XPM */
static char * col_xpm[] = {
"55 55 2 1",
" 	c #071418",
".	c #5D1F74",
"                                                       ",
"                                                       ",
"                                                       ",
"                                                       ",
"                                                       ",
"                                                       ",
"                                                       ",
"                                                       ",
"                                                       ",
"                                                       ",
"                                                       ",
"                                                       ",
"                              ...........              ",
"            ...........     ...............            ",
"           .............   .................           ",
"         ................ ...................          ",
"         .....................................         ",
"        ......................................         ",
"        .......................................        ",
"       ........................................        ",
"       ........................................        ",
"      ..........................................       ",
"      ..........................................       ",
"      ..........................................       ",
"      ..........................................       ",
"      ..........................................       ",
"      ..........................................       ",
"      ..........................................       ",
"      ..........................................       ",
"      ..........................................       ",
"      ..........................................       ",
"       .........................................       ",
"       .........................................       ",
"        ........................................       ",
"         ......................................        ",
"          .....................................        ",
"          ....................................         ",
"           ..................................          ",
"           ..................................          ",
"            ................................           ",
"             ..............................            ",
"              ............................             ",
"               ..........................              ",
"                .......................                ",
"                 ...................                   ",
"                 ................                      ",
"                  .............                        ",
"                   ..........                          ",
"                    ........                           ",
"                     ......                            ",
"                      ....                             ",
"                       ..                              ",
"                       ..                              ",
"                       ..                              ",
"                        .                              "};
