/* XPM */
static char * fille_xpm[] = {
"55 55 25 1",
" 	c #071418",
".	c #8E2684",
"+	c #000000",
"@	c #23113E",
"#	c #22103E",
"$	c #22113E",
"%	c #220F3E",
"&	c #23123E",
"*	c #0F0520",
"=	c #060211",
"-	c #15082A",
";	c #0C131F",
">	c #120625",
",	c #1E0D37",
"'	c #0F0521",
")	c #1C0C34",
"!	c #16082C",
"~	c #1C0C35",
"{	c #190A30",
"]	c #1F0D39",
"^	c #200E3C",
"/	c #1E0D38",
"(	c #1A0A31",
"_	c #0B041B",
":	c #1B0B33",
"                                                       ",
"                                                       ",
"                                         ..   ..       ",
"                                       ..... ....      ",
"                                      ............     ",
"                                      ............     ",
"                                      ............     ",
"                                      ...........      ",
"                                       .........       ",
"                         +++++++        ......         ",
"                       +++@#@$@+          ...          ",
"                      ++#$###%#&+         ...          ",
"                      +$####%%%%++    ++++ .           ",
"                     +@####%###%$+   +*$@++            ",
"                    +=#%##%%&#%%#+   +#$%#=+           ",
"                    +###%%%####%%-+ +*#$%%#-;          ",
"                    >#$%%##@@##%#$+ +$##%%#,*          ",
"                   +###%#%#&###%##+ +$#%%%%%*          ",
"                   +#&%#%#$@%###%#+ +#%##%%%*          ",
"                   =#####$#@%#$##%+ *@%%##%%'+         ",
"                   =#%##&#@##%#$##+++@%%@@%%#+         ",
"                  +=%%@#&#@##$$###=+&%%#&##%#+         ",
"                  +&%%$#&@##$&####)+&%%%#$#%#+         ",
"                  +$%%#@&@$$&&$#$#*+&%%%#&$#%+         ",
"                  +*###&&@$$&&@@$%!+#%%##&&#%=+        ",
"                   +%%$&&&#@&&&&@#~+%%#$$&&#%@+        ",
"                   +###&&&$#&&&&&###%#$#$$&$%$+        ",
"                   +###@&&&&&&&&&#%%%#@&&##$%$+        ",
"                   ++#@#&&&&&&&&&@%###$&&##%%=+        ",
"                    +##$@&&&&&&&&&$$@@&&@#%#$+         ",
"                    ++##$&&&&&&&&&&&&&&&####++         ",
"                     +##$&&&&&&&&&&&&&&@%##++          ",
"                     +&#%@&&&&&&&&&&&&&#%#&+           ",
"                      +$$#&&&&&&&&&&&&$%#&++           ",
"                      ++&$@&&&&&&&&&&&#%&++            ",
"                       +&@#&&&$$@@@@@@%$&+             ",
"                   +++++&@#%$###$@@@#$#$&+             ",
"                ++-{###-]%%%#@@$##$$&###>======++      ",
"              +++##%%%%%^/%##&@$@$$$$##%/^%%####=++    ",
"             +>$#%%%%###&&$&$#$@&&$@$###%%%######&++   ",
"            **#%%%%%%##$@#$&+(*+&&@###&&@@%%%#@$%#&+   ",
"           +*#%%%#%%%##$#&+++&&++&&###+++++@#%###%#++  ",
"           +#%%%##%%%#&&&++&&&&&++&&$+&&&&++&#%####$+  ",
"           =#%%#&###$&&&++&&&&&&&+&&++&&&&&++@#%####+  ",
"           _#%%@#%#&&&&&+&&&&&&&&+&&+&&&&&&&+&##%#%#+  ",
"          +:###$##$&&&&&+&&&&&&&&++&+&&&&&@#*&&##%%#>+ ",
"          +##@#&##$&&&&&&&&&&&&&&&&&&&&&&&#$*$&&#%##$+ ",
"          +####%$$&&&&&&&&&&&&&&&&&&&&&&&&##@$$$#%%##+ ",
"          =$####$@&&&&&&&&&&&&&&&&&&&&&&&&&@#&&##%#%#+ ",
"          +###$##$&&&&&&&&&&&&&&&&&&&&&&&&&&$####%%##= ",
"          +*##&##&&&&&&&&&&&&&&&+++++&&&&&&&&###$%@#$+ ",
"           +#%&##&@&&&&&&&&&&&&&+++++&&&&&&&$#$###@#!+ ",
"           +=#&#&$#########@@#$@@***@@@@@$$$#####$#&+  ",
"            +&&&&&&&&&@@@#####$##:>$$$@###$$#$@@&&+++  ",
"            +++++++++++++++++=***--***{==++++++++++    "};
