/* XPM */
static char * finNo_xpm[] = {
"55 55 383 2",
"  	c #071418",
". 	c #000000",
"+ 	c #1D0D0D",
"@ 	c #000101",
"# 	c #251212",
"$ 	c #1F0E0E",
"% 	c #0E0505",
"& 	c #221010",
"* 	c #241212",
"= 	c #210F0F",
"- 	c #1A0B0B",
"; 	c #241111",
"> 	c #221111",
", 	c #200E0E",
"' 	c #231010",
") 	c #211010",
"! 	c #050303",
"~ 	c #0A171A",
"{ 	c #0A181B",
"] 	c #081212",
"^ 	c #050C0D",
"/ 	c #010102",
"( 	c #190A0A",
"_ 	c #010405",
": 	c #0E1B1D",
"< 	c #101E1F",
"[ 	c #0F1D1E",
"} 	c #0F1C1D",
"| 	c #1C1A1A",
"1 	c #241313",
"2 	c #180C0C",
"3 	c #0F0707",
"4 	c #0B191B",
"5 	c #091619",
"6 	c #0E1C1E",
"7 	c #111F20",
"8 	c #121D1E",
"9 	c #141E1F",
"0 	c #131E1F",
"a 	c #121E1F",
"b 	c #1E1919",
"c 	c #220F0F",
"d 	c #1D0D0E",
"e 	c #1A0D0E",
"f 	c #0C191C",
"g 	c #081519",
"h 	c #071011",
"i 	c #171D1E",
"j 	c #171D1D",
"k 	c #181C1C",
"l 	c #121F20",
"m 	c #181C1D",
"n 	c #020506",
"o 	c #1E0E0E",
"p 	c #09161A",
"q 	c #372B2B",
"r 	c #463939",
"s 	c #192021",
"t 	c #1B1B1B",
"u 	c #191C1C",
"v 	c #181D1D",
"w 	c #020405",
"x 	c #030607",
"y 	c #372A2A",
"z 	c #604A4A",
"A 	c #312D2D",
"B 	c #1A1B1B",
"C 	c #161E1E",
"D 	c #0B1717",
"E 	c #010202",
"F 	c #0A1415",
"G 	c #4B3C3C",
"H 	c #0F1A1B",
"I 	c #091314",
"J 	c #1B1A1B",
"K 	c #221515",
"L 	c #1D0E0F",
"M 	c #1D1111",
"N 	c #131B1C",
"O 	c #111E1F",
"P 	c #081112",
"Q 	c #2F2121",
"R 	c #624B4B",
"S 	c #121F1F",
"T 	c #393232",
"U 	c #0B1516",
"V 	c #2C2A2B",
"W 	c #192122",
"X 	c #201414",
"Y 	c #151C1D",
"Z 	c #0D191A",
"` 	c #0C1819",
" .	c #201515",
"..	c #282627",
"+.	c #151E1E",
"@.	c #151E1F",
"#.	c #131D1E",
"$.	c #222323",
"%.	c #2F2C2D",
"&.	c #282829",
"*.	c #132021",
"=.	c #1D191A",
"-.	c #141D1E",
";.	c #0E1A1B",
">.	c #0A1516",
",.	c #0E1B1C",
"'.	c #101E20",
").	c #0B1617",
"!.	c #443232",
"~.	c #483939",
"{.	c #161D1E",
"].	c #131C1D",
"^.	c #111C1C",
"/.	c #755858",
"(.	c #202526",
"_.	c #252728",
":.	c #101D1E",
"<.	c #232627",
"[.	c #152021",
"}.	c #1B2323",
"|.	c #060E0E",
"1.	c #362626",
"2.	c #594646",
"3.	c #1C191A",
"4.	c #050D0D",
"5.	c #071010",
"6.	c #010303",
"7.	c #020404",
"8.	c #201616",
"9.	c #443434",
"0.	c #3A3132",
"a.	c #0E1313",
"b.	c #020202",
"c.	c #151D1E",
"d.	c #201717",
"e.	c #523D3D",
"f.	c #554343",
"g.	c #131919",
"h.	c #121717",
"i.	c #030505",
"j.	c #231414",
"k.	c #1D1919",
"l.	c #1E1818",
"m.	c #1F1718",
"n.	c #181A1B",
"o.	c #131F1F",
"p.	c #161E1F",
"q.	c #1D1818",
"r.	c #061317",
"s.	c #705353",
"t.	c #644D4D",
"u.	c #342D2E",
"v.	c #1A1B1C",
"w.	c #191B1C",
"x.	c #0A0D0D",
"y.	c #040606",
"z.	c #131F20",
"A.	c #010404",
"B.	c #010304",
"C.	c #5E4646",
"D.	c #664F4F",
"E.	c #091313",
"F.	c #171C1D",
"G.	c #170A0A",
"H.	c #101617",
"I.	c #1D1819",
"J.	c #060F0F",
"K.	c #0D0505",
"L.	c #382E2E",
"M.	c #060E0F",
"N.	c #0A1515",
"O.	c #081213",
"P.	c #121C1D",
"Q.	c #1E1819",
"R.	c #111919",
"S.	c #000102",
"T.	c #0C0404",
"U.	c #200F0F",
"V.	c #3E2F2F",
"W.	c #091414",
"X.	c #181B1C",
"Y.	c #120606",
"Z.	c #1E0D0D",
"`.	c #231111",
" +	c #4F3F3F",
".+	c #4F3C3C",
"++	c #5E4545",
"@+	c #171B1C",
"#+	c #010203",
"$+	c #191718",
"%+	c #1A1A1B",
"&+	c #0C1111",
"*+	c #141E1E",
"=+	c #181919",
"-+	c #191A1B",
";+	c #170909",
">+	c #1A0C0C",
",+	c #1C0C0C",
"'+	c #201010",
")+	c #180A0A",
"!+	c #2C1F1F",
"~+	c #574444",
"{+	c #463636",
"]+	c #6F5353",
"^+	c #1B1718",
"/+	c #1B1919",
"(+	c #1B191A",
"_+	c #0F0606",
":+	c #1F0F0F",
"<+	c #231313",
"[+	c #0B0606",
"}+	c #463A3A",
"|+	c #362829",
"1+	c #4C3838",
"2+	c #544242",
"3+	c #161D1D",
"4+	c #171E1E",
"5+	c #231212",
"6+	c #785B5B",
"7+	c #6B5152",
"8+	c #664C4C",
"9+	c #544141",
"0+	c #1C1A1B",
"a+	c #524141",
"b+	c #534242",
"c+	c #503D3D",
"d+	c #1C1B1B",
"e+	c #191B1B",
"f+	c #1F1818",
"g+	c #393132",
"h+	c #685050",
"i+	c #302020",
"j+	c #2F2122",
"k+	c #1A1C1C",
"l+	c #0A1014",
"m+	c #463333",
"n+	c #6D5454",
"o+	c #735757",
"p+	c #463737",
"q+	c #493838",
"r+	c #1D1A1A",
"s+	c #0B0F0F",
"t+	c #091114",
"u+	c #081317",
"v+	c #866565",
"w+	c #503C3C",
"x+	c #694E4E",
"y+	c #4A3C3C",
"z+	c #614A4A",
"A+	c #332C2C",
"B+	c #0D1111",
"C+	c #111616",
"D+	c #191D1D",
"E+	c #100606",
"F+	c #071417",
"G+	c #030202",
"H+	c #6E5252",
"I+	c #654B4B",
"J+	c #7A5D5D",
"K+	c #634D4D",
"L+	c #272829",
"M+	c #1E2424",
"N+	c #111D1E",
"O+	c #1B1A1A",
"P+	c #090C0C",
"Q+	c #140808",
"R+	c #604747",
"S+	c #564040",
"T+	c #5E4848",
"U+	c #172122",
"V+	c #141919",
"W+	c #0F1717",
"X+	c #0E1212",
"Y+	c #061014",
"Z+	c #745757",
"`+	c #795B5B",
" @	c #6C5253",
".@	c #4A3C3D",
"+@	c #3D3434",
"@@	c #3A3232",
"#@	c #142021",
"$@	c #161C1D",
"%@	c #161C1C",
"&@	c #191A1A",
"*@	c #071216",
"=@	c #7F6060",
"-@	c #7A5C5C",
";@	c #3A2D2D",
">@	c #473A3B",
",@	c #101E1E",
"'@	c #071317",
")@	c #725555",
"!@	c #765959",
"~@	c #6F5555",
"{@	c #584545",
"]@	c #1D2324",
"^@	c #151D1D",
"/@	c #11191A",
"(@	c #5F4A4A",
"_@	c #755959",
":@	c #664E4E",
"<@	c #514040",
"[@	c #654C4C",
"}@	c #674E4E",
"|@	c #564445",
"1@	c #473A3A",
"2@	c #503F3F",
"3@	c #212526",
"4@	c #352F2F",
"5@	c #3F3535",
"6@	c #272828",
"7@	c #332E2E",
"8@	c #614A4B",
"9@	c #1C2323",
"0@	c #0F1617",
"a@	c #141C1D",
"b@	c #101616",
"c@	c #0E1717",
"d@	c #624949",
"e@	c #5A4646",
"f@	c #544343",
"g@	c #0D1819",
"h@	c #1A2223",
"i@	c #191616",
"j@	c #211617",
"k@	c #1C1919",
"l@	c #030405",
"m@	c #101A1B",
"n@	c #7E6060",
"o@	c #624C4C",
"p@	c #322D2E",
"q@	c #14191A",
"r@	c #1A2020",
"s@	c #181819",
"t@	c #0C1718",
"u@	c #47393A",
"v@	c #4E3D3D",
"w@	c #2D2424",
"x@	c #0C0808",
"y@	c #211616",
"z@	c #1C1515",
"A@	c #0D1516",
"B@	c #715656",
"C@	c #171818",
"D@	c #553F3F",
"E@	c #352424",
"F@	c #190D0D",
"G@	c #211E1E",
"H@	c #1F1C1D",
"I@	c #141C1C",
"J@	c #111818",
"K@	c #0D1A1B",
"L@	c #2C2121",
"M@	c #272728",
"N@	c #1A1616",
"O@	c #1A1919",
"P@	c #1F1919",
"Q@	c #271616",
"R@	c #101A1A",
"S@	c #131D1D",
"T@	c #060303",
"U@	c #1F0D0D",
"V@	c #060F10",
"W@	c #3D2E2E",
"X@	c #151617",
"Y@	c #393131",
"Z@	c #594546",
"`@	c #190B0B",
" #	c #0B0404",
".#	c #594545",
"+#	c #423636",
"@#	c #282727",
"##	c #191C1D",
"$#	c #1A1A1A",
"%#	c #0C1212",
"&#	c #10191A",
"*#	c #130707",
"=#	c #050B0C",
"-#	c #231515",
";#	c #241414",
">#	c #1D0E0E",
",#	c #040B0B",
"'#	c #140707",
"                                                                                                              ",
"                                                                                                              ",
"                                                        . .                                                   ",
"                                                      . . . .                                                 ",
"                                                    . . + @ .                                                 ",
"                                                . . . # $ % . .                                               ",
"                                              . . . & * = - . . .                                             ",
"                                            . . . # # ; > , - . .                                             ",
"                                . . . . . . . . # # # # ; ' ) ! . .     . . . . .                             ",
"                            . . . ~ { ] ^ / . . # # # # # ; & ( _ . .   . . . . . .                           ",
"                            . . : < [ < } | 1 . # # # # # * * $ 2 3 . . . . 4 5 . .                           ",
"                          . . 6 7 7 8 9 0 a b @ # # # # # # # c d e . . . f 7 6 g . .                         ",
"                          . h < 7 i j j k l m n . # # # # . . . & o . . . 6 7 < p   .                         ",
"                          . q r s t k u v l 0 ^ . . . . . @ . w @ . . . x } 7 < : { . .                       ",
"                          . y z A B j u k C 7 D E F G H I J m m K . L M N < O 7 7 < P .                       ",
"                        . . Q R 9 k j S 9 l 7 T ] U V W 7 7 7 7 | * X Y 7 7 Z ` < < } . .                     ",
"                      . . .  ...+.v j l @.#.$.%.&.< 7 7 *.7 a 9 =.J -.7 7 7 ;.>.,.'.7 )..                     ",
"                    . . . # !.~.0 v C @.{.].^.O 7 7 7 7 7 7 0 {.9 7 7 7 7 a a < O 7 7 < . .                   ",
"                  . . . . . . /.9 v j +.+.7 < (._.:.<.[.}.7 l l l 7 7 7 Z |.. . . 7 7 O 6 . .                 ",
"                . . . . # . 1.2.0 0 9 j J 3.] P 4.4.5.Z < 0 0 a 7 l 9 J 6.. . 7.. . 7 7 7 I .                 ",
"              . . . . # . 8.9.0.{.l 7 v B u a.. . b.b.6.J c.l 7 l u d.E . . 3.. X . a 7 7 ;.w                 ",
"            . . # # # # . e.f.a j l 0 J g.h.i.. j.k.u . . l.@.7 a m.# . j.n.o.p.q.E . l 7 7 . . .             ",
"        r.. . # # # # # . s.t.u.v.l w.. x.. 6.=.j v v t . y.u 7 7 =.. . K c.0 z.d.A.. . 7 a . . . .           ",
"        B.. & # # # # # . C.D.R B 7 v.E . 7.m 7 7 7 9 9 E.. . 7 7 F.E G.H.7 7 7 J I.J.. 7 7 . . . .           ",
"      . . . . . . . K.. . . T L.M.:.. . E w.7 7 7 7 7 O N.E . < 7 O J.. O.7 7 P.Q.} >.. 7 l R.. . . S.        ",
"      . . b.T.U.; . . . . . 2.V.d.0 7 . 5.< 7 7 7 7 7 7 :.|.. ;.7 7 I @ k 0 7 W.P :.. . 7 +.X.. Y.. . .       ",
"      . . Z.+ ' `.; & Z.. .  +.+++X.7 . @+7 7 c.F.7 7 a 0 >.#+$+7 7 %+&+F.*+0 =+-+O.h *+7 +.w.. ;+>+& . .     ",
"      . ,+'+= * )+# # ) . !+~+{+]+I.a :.. 7 7 %+J 7 7 c.7 l w.^+l 7 c.B F.0 l -.l /+v.7 7 C (+i.= o > _+.     ",
"      . :+`.> # & * # ' <+[+}+2.|+1+2+7 . 9 9 =.v.0 7 0 a 7 7 l 7 7 l 3+4+l *+S l 9 l 7 +.. . . ' & `.$ .     ",
"      . & 5+* ; `.# # * * . 1.6+7+8+9+7 0 J 0+a 7 7 7 7 l 7 7 7 7 0 c.i {.+.*+7 7 7 7 @.m . . ; * ; ; ) .     ",
"    . . `.* # # # # # # # # . a+b+c+j.F.a 0 0 7 7 7 7 l 3+3+S l +.j d+| u C o.7 7 7 {.e+f+. . # * * * & .     ",
"    . . # # # # # # # # # # . . g+h+i+j+a 7 7 7 l l 9 k u k v j v . . . k+c.7 7 i 0+u . b.. - * ; # * o . l+  ",
"    . . # # # # . . . . . . . m+n+o+p+q+7 7 7 7 7 7 j u r+s+. . . . . . . . 3+u r+. . . . * G.`.& # # & . t+u+",
"    . . # # # # . v+v+v+v+v+v+w+x+y+z+A+< O 7 7 7 7 z.j . . . B+h.C+r+k +.. D+B . . # # # * `.U.= * # E+.   F+",
"    . G+# # # # . v+v+v+v+v+v+H+I+J+K+L+M+N+7 7 7 a l 0 m u k+u u k u {.l @+O+P+. # # # # # > U.`.# # ( .     ",
"    . Q+# # # # . v+v+v+v+v+v+R+S+T+}+T U+< l l 7 7 9 9 l 7 l C v V+} 7 O W+X+. . . # # # # * & * # # & .     ",
"  Y+. - # # # # . v+v+v+v+v+Z+`+ @.@+@@@#@l l l 7 7 7 7 7 7 7 7 7 O O 8 $@%@&@h . . . . # # # & # # # & .     ",
"  *@. ,+# # # # . v+v+v+!+=@-@;@>@g+a #@*.7 l c.m {.9 0 0 0 O 7 ,@Y j -.9 {.C S n.#+. . . # # `.# # # `..     ",
"  '@. U.# # # # . . . . )@!@~@@@{@]@l l 7 7 l 7 l m B =.B Z ;.8 ^@+.l 7 0 w.{.7 l /@).. . . # * # # # * .     ",
"  F+. :+`.# # # . v+v+v+1.Z+(@_@:@<@l l #@M+l l 7 7 7 l 7 7 7 *+9 7 7 7 0 m w.$@7 7 7 ,.. . # # # # # # .     ",
"    . & 5+# # # . v+v+v+[@}@|@1@U+2@l l 3@4@#.{.+.{.9 +.7 7 9 9 0 l 7 7 7 C *+F.n.Z ,@< c.. . # # # # # .     ",
"    . * # # # # . v+v+1+H+R+5@6@+@l 7@8@9@4@0@0+j +.{.9 7 l a@^@7 l 0 9 0 7 0 +.X.b@c@< < . . # # # # # .     ",
"    . # # # # # . v+v+d@d@e@f@g@h@z.O :.*.O ).. B 0 {.l 7 7 7 +.7 l i@j@d.F.l C v k@l@m@7 9 . . # # # # .     ",
"    . # # # # # . v+v+1+)@n@o@:.p@q@< 7 r@9 =.. v.C *+0 7 7 7 9 +.7 B E . 1 t j v k@i.s@:.c.t@. # # # # .     ",
"    . & # # # # . . . . u@D.v@H w@x@` *+^@3+3.. u 9 9 7 7 7 7 z.3+0 0 b . . # k.y@. . z@A@[ l . # # # # .     ",
"  . . = # # # # & & . . >@B@t.C@D@E@F@X.G@H@. . . j ^@< 7 7 7 7 #.C 7 a I@. . . . . . k J@K@l . . # # # .     ",
"  . 6.= ; # # # & * . L@M@0 N@O@. . . P@Q@. . . k+k R@+.7 7 7 7 S@C 7 7 7 @.| . . . 0 9 #.;.7 . . ; # # .     ",
"  . T@U@; # # # ; ; . q+1@9 w.t t | . . . . . . j l 7 7 7 7 7 ;.V@).{.o.7 7 7 l 7 7 l l O K@l . . ' `.`..     ",
"  . . , ; # # # # # . W@g+l 7 l {.k m . . . . *+l 7 < 0 7 7 c.f+k.m 0 9 0 7 7 7 7 7 7 0 X@` a Q.. ' > # .     ",
"    . $ ; # # # # # . y Y@7 7 7 7 *+*+7 7 7 7 7 7 7 7 *+l l 0 *+9 3+{.j F.{.c.{.{.9 l a #.Z 7 . . $ c # .     ",
"    . E+`.# # # # # . . Z@f.~.m +.l 7 l 0 a l 9 a O c.. . j C +.C m D+| . . . . . . | 9 O :.7 . . `@o # . .   ",
"    .  ## # # # # # # . .#+#@#k.##l l :.0 9 0 l l . . . . . . . k u . . . . . ;.,@. . $#7 7 7 . . Q+Q+* .     ",
"    . $ # # # # # # # . . c.0 9 0 l 9 9 l . . . . . 7 7 . . . . . %#. . c.0 J j 0 F . > &#< . . . o *#& .     ",
"    . U.* # # # # # # # . . . . . . . . . . 4.^ =#j@K@F.Q.1 . . . . . -#j@f+j.y@f+;#. . 6.P . E . >#= ' .     ",
"    . . . . . . . . . . . . E ,#n @ . . . . . . . @ 7.@ . . . . . . . . . . . . . . . . . . . . '#_+. . .     "};
