/* XPM */
static char * mur_xpm[] = {
"55 55 3 1",
" 	c #BBB6CD",
".	c #071418",
"+	c #5B6D36",
"      ..            ......            .......         .",
" ++++    ++ +++++++        ++++++++++  ....   +++++++  ",
" ++++++++++ ++++++++ +++  ++++++++++++      ++++++++++ ",
" ++++++++++ ++++++++ +++    +++++++++++++ ++++++++++++ ",
" ++++++++++ ++++++++ +++    +++++++++++++ ++++++++++++ ",
" ++++++++++ ++++++++ +++ +  +++++++++++++ ++++++++++   ",
" ++++++++++ ++++++++ +++     +++++++++++       +++++ ..",
" ++++++++++ ++++++++ ++    + +++++++++++ +++++ +++++ ..",
" ++++++++++ +++++++  ++ ++++  ++++++++++ +++++ +++++ ..",
" ++++++++++ +++++++ +++ +++++    +++++++ +++++ +++++ ..",
" ++++++++++ +++++++ +++ ++++++++ +++++++ +++++ +++++  .",
" ++++++++++ +++++++ +++ ++++++++ +++++++  +++  ++++++  ",
"  +++++++++ +++++++ +++  +++++++ +++++++  ++++ +++++++ ",
". +++++++++ +++     ++++ +++++++ +++++++ +++++ +++++++ ",
". +++++++++ +++ ++++++++ +++++++  ++++++ +++++ +++++++ ",
". ++++++++  +++ ++++++++  +++++++ ++++++ +++++ +++++++ ",
". ++++++++ + ++ +++++++++         ++++++ +++++ +++++++ ",
"  ++++++++ ++++ +++++++++++++++++  ++++  +++++ ++++++  ",
"   ++++++  ++++ ++++++++++++++++     ++ ++++++  ++++  .",
" +        +++++ ++++++++++++++   +++    +++++++ ++   ..",
"++++++++++      +++++++++++    ++++++   +++++++       .",
"+++++++++++++++    +++++    +++++++++ +  ++++++ +++++ .",
"+++++++++++++++ ++       ++++++++++++ ++ ++++++ +++++ .",
"++   +++++++++  +++++  ++++++++++++++ ++  +++++ +++++ .",
"   + +++++++   +++++    +++++++++++++ +++ +++++  ++++  ",
" +++  +++    +++++++ ++  +++++++++++  +++  ++++  +  +  ",
" ++++ +   ++++++++++ ++  +++++++++++ +++++  +          ",
" ++++   ++++++++++++ ++ ++++++++++++ ++++++   ++++++++ ",
" +++++++++++++++++++ ++  +++++++++++ +++++++++++++++++ ",
" +++++++++++++++++++ +++ ++++   ++++ ++++ ++++++++++++ ",
" +++++++++++++++++++ +++ ++++ +            +++++++++++ ",
" ++++++++++    +++++ +++ ++++ ++++++  ++++ +++++++++++ ",
" ++ ++++++  ++   ++++ ++  ++  ++++++ +++++  ++  ++++++ ",
"           +++++  ++  +++    +++++++ ++++++            ",
"++   ++++++++++++    +++++    ++++++ +++++++  ++++++++ ",
"+++  ++++++++++    +++++++++  ++++++ +++++++  ++++++++ ",
"+++  +++++++++  ++ ++++++++    +++++ +++++++  ++++++++ ",
"+++   ++++++++ +++  +++++++ ++ ++++  +++++++  ++++++++ ",
"++  + +++++++  ++++ +++++   ++ ++   ++++++++  ++++++++ ",
"++ ++ +++++++ ++++  +     ++++    +++++++++   ++++++++ ",
"++ ++ +++++   ++++      ++++++++++++++++    + ++++++++ ",
"++ ++  +++  +++++++++ +  +          +      ++  +++++++ ",
"++ +++     +++++++++  ++       ++++        +++ +++++++ ",
"   +++    ++++++++++ +++++++++ ++ ++ +++++ +++ +++++++ ",
"  +++  +   +++++++++    ++++++       +++++ +++ +++++++ ",
"  ++                      +++++++ ++++++++ +++         ",
"       +++++    +++++  ++  +++++  ++++++++  +++++++++  ",
"  ++ ++++++++++ ++    +++++  +++   ++++++++ +++++++++ .",
". ++  ++++++++  +  +++++++++  ++ + ++++++++ +++++++++ .",
". +++ ++++++++ ++ +++++++++++    + ++++++++ +++        ",
". +++  +++++++ ++ +++++++++++++  +  +++++++ ++  ++++++ ",
"       +++++++ ++  ++++++++++++   +  ++++++ ++ +++++++ ",
". ++++++++++++ +++  +++++++++   +  +      + ++   +++++ ",
". ++++++++++++ +++   ++++++   ++++     +++   +++       ",
".                           ++++++++++                 "};
