/* XPM */
static char * py_xpm[] = {
"55 55 70 1",
" 	c #071418",
".	c #000000",
"+	c #0A171A",
"@	c #0A181B",
"#	c #0C191C",
"$	c #0E1B1D",
"%	c #101E1F",
"&	c #111F20",
"*	c #0D1A1C",
"=	c #081519",
"-	c #0B191B",
";	c #091619",
">	c #0E1C1E",
",	c #101E20",
"'	c #0C1A1C",
")	c #000101",
"!	c #071011",
"~	c #0F1D1E",
"{	c #0B181B",
"]	c #0F1C1E",
"^	c #020506",
"/	c #09161A",
"(	c #070F10",
"_	c #0D1A1D",
":	c #0A181A",
"<	c #020405",
"[	c #050D0D",
"}	c #010202",
"|	c #081518",
"1	c #081112",
"2	c #081212",
"3	c #101D1F",
"4	c #0F1C1D",
"5	c #0F1D1F",
"6	c #0D1B1D",
"7	c #0B1617",
"8	c #111E20",
"9	c #0D191A",
"0	c #060E0E",
"a	c #010303",
"b	c #020404",
"c	c #091314",
"d	c #0C191B",
"e	c #010404",
"f	c #081213",
"g	c #091313",
"h	c #060F0F",
"i	c #0A1516",
"j	c #0C1718",
"k	c #0E1C1D",
"l	c #010203",
"m	c #020505",
"n	c #101D1E",
"o	c #081619",
"p	c #050C0C",
"q	c #111F1F",
"r	c #0D1919",
"s	c #0A1515",
"t	c #030808",
"u	c #010101",
"v	c #030606",
"w	c #030707",
"x	c #060D0E",
"y	c #0E1A1B",
"z	c #101E1E",
"A	c #020606",
"B	c #0A1415",
"C	c #050C0D",
"D	c #050B0C",
"E	c #040B0B",
"                                                       ",
"                                                       ",
"                                                       ",
"                                                       ",
"                                                       ",
"                                                       ",
"                                                       ",
"                                                       ",
"                .......             .....              ",
"              ...+@#+ ..            ......             ",
"              ..$%%&%*=.           ...-;..             ",
"             ..>&&,&,&')          ...#&>=..            ",
"             .!&&~{#>&]^.    ...  .. >&%/ .            ",
"             .(%&-  _&%:.....)=<).. ;%&%$@..           ",
"             .[%&_='>%&$}.|{'$]>/. ;]&&&&%1.           ",
"             ..%%{*&&&&%2{3&&&&&* /~&&>$%%4..          ",
"             ..5%->&&%%%,&&&&&&%*6%&&&~_~,&7.          ",
"              .~,6%&&%5&&&&&&&83%&&&&%8&&&&%..         ",
"             ..%%]&&,&&&8%&&&&&&&&&&90...&&&>..        ",
"             ..&%%&~{'##@[-]&&8&&&%6a  b..&&&c.        ",
"            .)'&3&&~  .....a6%&&&>{}.=#d=.%&&~<        ",
"            ..~&~&%{....  =..{%&&{ . *&8-}*&&&7.       ",
"            ..&%$&>=..a'~>$*..>&&'../%&&{ef&&&{.       ",
"            ..%5$&$}.b]&&&&&g..&&~} _&&&6'h~&&'.       ",
"           ...&${%%[}>&&&&&&_}.&&&h '&&3#%i6&&*.       ",
"            ..&#{%&i-&&&&&&&%0.~&&c)6&&*#%jk&&*.       ",
"            ..&'|>&j>&&%~&&&%il#&&$m]&%66f!%&&'.       ",
"            ..&>='&n>&&$6&&3&&>#&&3-~&&%&*k&&,+.       ",
"             .&&d:%&]%%*$%&%&&&&&&&33&&&&%&&&6}.       ",
"             ..&]=>&%66&&&&&&&&&&&%%&&&&&&&&6=.        ",
"              .&&6=~&%%&&&&&3%&&&~@@*%&&&&5{ ..        ",
"              ..&5;{&&&&&&%*o='6_=.}#%&&~'= ..         ",
"               .&&__&&&&&&~; .    .p%,%6=....          ",
"               ..&~5,&&&&&&];b)... '&&6 ..             ",
"                .q&%&3&&&&&8>$do  +3&>=..              ",
"               .lr&&&%&&&&%%&&&%]*3&&' ...             ",
"              .. :%&&&&&&&&&&&&&&&&%~$'-....           ",
"             ..  -%&&&&~]~%%%,&&%~~%&&&&$=...          ",
"            .. +6%&&&&&&&~$*$]~%%&&&%$~&&k6...         ",
"            .._%&,&&&&&&&&&&&&&&&&&&%>_~&&&5..         ",
"            }.&&%5&&%_$%&&&&&&8&8&&&&&&~69%&%..        ",
"           ...&~*5%]&~++~&&&&&5%&&%%,&&&_^s&&..        ",
"           ..&%{+5%%&&7t$&&&&&&&&&'+{~&&# l~&%..       ",
"           ..&$  *8&&&'u6&&&&&&&&&$}.=##= .@%%j.       ",
"           .%,{..=>&%&'._&&&&&&&3&%#}.   .)o#%&.       ",
"          ..&&_ . ='{'a./~%%&&&&%%&&~v...}{>6~&..      ",
"          .{%,- ...  .. ;*>%&&&&%&&&&%*!f%,&&~&..      ",
"          .'&%>#; .)w1{_~&&&&&&~{63&&&&&&&&&%]&#.      ",
"          .'&&&&%6>>3&&&&&&8&&%-']%&&&&&&&&%_>&#.      ",
"          .x%&&&&&&&&&&&&&&&&&&,&&&~]3355%&&%>&*.      ",
"          ..%,]]%&&&,&&%&&3~$]%&%k6+{;...._%&%&*.      ",
"           .5%%'>&&%%%%&&....+:#{/c....yz..6&&&_.      ",
"           ..38%8&%%&.....&&...  A..3%6~%B.=>&%:.      ",
"            ..........[CD:~~#=.....;+-o+-=..=#:}.      ",
"            ..}E^)...     =     .         ......       "};
