/* XPM */
static char * py_xpm[] = {
"55 55 155 2",
"  	c #071418",
". 	c #000000",
"+ 	c #010202",
"@ 	c #036887",
"# 	c #036E90",
"$ 	c #035D7A",
"% 	c #036F91",
"& 	c #037597",
"* 	c #036B8A",
"= 	c #037294",
"- 	c #036989",
"; 	c #03779B",
"> 	c #025E7C",
", 	c #025571",
"' 	c #03607E",
") 	c #036E8E",
"! 	c #03779A",
"~ 	c #037293",
"{ 	c #037598",
"] 	c #037496",
"^ 	c #036D8E",
"/ 	c #000101",
"( 	c #036B8D",
"_ 	c #036585",
": 	c #036C8E",
"< 	c #025D79",
"[ 	c #037193",
"} 	c #037396",
"| 	c #037699",
"1 	c #03769A",
"2 	c #037698",
"3 	c #03799D",
"4 	c #020506",
"5 	c #025D7A",
"6 	c #036E8F",
"7 	c #036988",
"8 	c #047091",
"9 	c #037599",
"0 	c #03789C",
"a 	c #03799C",
"b 	c #036685",
"c 	c #026685",
"d 	c #020405",
"e 	c #037092",
"f 	c #036888",
"g 	c #037497",
"h 	c #037091",
"i 	c #045D79",
"j 	c #03789B",
"k 	c #003040",
"l 	c #036C8C",
"m 	c #02607F",
"n 	c #036584",
"o 	c #025C7A",
"p 	c #026786",
"q 	c #01384A",
"r 	c #036787",
"s 	c #037295",
"t 	c #037192",
"u 	c #037395",
"v 	c #036786",
"w 	c #025E7B",
"x 	c #036B8C",
"y 	c #045772",
"z 	c #020303",
"A 	c #001C27",
"B 	c #037394",
"C 	c #036F90",
"D 	c #025F7D",
"E 	c #026C8D",
"F 	c #010303",
"G 	c #03617F",
"H 	c #035B77",
"I 	c #036B8B",
"J 	c #004257",
"K 	c #026684",
"L 	c #036A8A",
"M 	c #026584",
"N 	c #000102",
"O 	c #01212D",
"P 	c #01475F",
"Q 	c #026382",
"R 	c #037498",
"S 	c #037495",
"T 	c #013C4F",
"U 	c #02617E",
"V 	c #036C8D",
"W 	c #036D8D",
"X 	c #02617F",
"Y 	c #01536C",
"Z 	c #02607E",
"` 	c #037799",
" .	c #046E8F",
"..	c #04536C",
"+.	c #013040",
"@.	c #035771",
"#.	c #037194",
"$.	c #004359",
"%.	c #03607D",
"&.	c #036383",
"*.	c #035F7C",
"=.	c #025B77",
"-.	c #003A4D",
";.	c #01465C",
">.	c #037397",
",.	c #01222F",
"'.	c #023B4E",
").	c #026482",
"!.	c #013344",
"~.	c #00080E",
"{.	c #014258",
"].	c #026D8E",
"^.	c #001B26",
"/.	c #04495F",
"(.	c #000001",
"_.	c #01475E",
":.	c #02131B",
"<.	c #002837",
"[.	c #026A8A",
"}.	c #01141D",
"|.	c #002E3E",
"1.	c #00394C",
"2.	c #030808",
"3.	c #010203",
"4.	c #002735",
"5.	c #010101",
"6.	c #012634",
"7.	c #030606",
"8.	c #026787",
"9.	c #00111A",
"0.	c #002937",
"a.	c #026280",
"b.	c #026686",
"c.	c #033141",
"d.	c #026989",
"e.	c #0E1A1B",
"f.	c #101E1E",
"g.	c #111F20",
"h.	c #020606",
"i.	c #101D1F",
"j.	c #101E1F",
"k.	c #0D1B1D",
"l.	c #0F1D1E",
"m.	c #0A1415",
"n.	c #050D0D",
"o.	c #050C0D",
"p.	c #050B0C",
"q.	c #0A181A",
"r.	c #0C191C",
"s.	c #081519",
"t.	c #091619",
"u.	c #0A171A",
"v.	c #0B191B",
"w.	c #081619",
"x.	c #040B0B",
"                                                                                                              ",
"                                                                                                              ",
"                                                                                                              ",
"                                                                                                              ",
"                                                                                                              ",
"                                                                                                              ",
"                                                                                                              ",
"                                                                                                              ",
"                                . . . . + . .                           . . . . .                             ",
"                            . . . . @ # $ @ . .                         . . . . . .                           ",
"                            . . % & * = - ; > .                       . . . , ' . .                           ",
"                          . . . ) ! ~ { % ] ^ /                     . . . ( _ : < . .                         ",
"                          . . [ } ; | ] 1 2 3 4 .         . . .     . . 5 = 6 { 7 3 .                         ",
"                          . 8 9 ! 3 ! 0 3 a 3 b . . . . . / c d / . . e f ] g 0 h { . .                       ",
"                          . i j j a 0 0 3 a 3 % + k 3 l m e e n @ . o | ^ ! 1 3 | j p .                       ",
"                          . q a a 3 3 3 3 3 3 | r s 0 g t u u [ g v r ; { ; 3 3 3 | u . .                     ",
"                          . . 1 3 3 3 3 3 3 3 j 6 u a ! 3 1 9 u | s u 3 ; 0 3 3 3 j } w .                     ",
"                            . 3 3 3 3 3 3 3 3 0 & ! 0 0 3 0 ; 9 3 3 | 3 3 3 3 3 3 0 ; x . .                   ",
"                          . . 3 3 3 3 3 3 3 3 3 3 3 3 3 0 3 3 ; 3 3 ; 3 3 . . . . 3 0 t 7 . .                 ",
"                          . . 3 ! 3 3 3 3 3 3 3 3 y 3 3 3 3 3 0 3 3 0 3 . . m z . A 0 B C . .                 ",
"                        . / D E 9 3 3 3 3 3 . . . . . F 3 3 3 3 3 3 a . . [ G H ^ . 3 | = I .                 ",
"                        . . 6 = ! 3 3 3 J . . . & C . . . 3 3 3 3 3 3 . K = I L M . . 3 { { . N               ",
"                        . . } { 3 3 3 3 . . O P | L b Q . . 3 3 3 3 . . = R S t h T 3 3 0 0 I .               ",
"                        . . { | 3 3 3 + . z b U ! [ V W X . Y 3 3 3 . Z ` 9 ] g h )  .3 3 a ! .               ",
"                      . . . j 0 3 3 3 ..+.@.#.I 0 } g ] h + $.3 3 3 %.&.j ; | 0 g [ 0 3 3 0 & .               ",
"                        . . % a 3 3 3 ( *.V 1 u a ! ; | } =.-.j 3 0 ! ;.>.3 1 0 3 1 0 a 3 3 & .               ",
"                        . . ^ 3 3 3 j # } % ! ! 3 0 3 0 & I ,.3 3 a 1 '.t 3 3 3 3 0 3 3 3 3 ! .               ",
"                        . . ).0 3 3 a u ` u 0 0 3 a 3 3 & } 6 3 3 3 j v 0 3 3 3 3 3 3 3 3 3 a .               ",
"                          . [ 1 3 3 3 9 3 ! 0 3 3 3 3 3 0 j u 3 3 3 0 h | 3 3 3 3 3 3 3 3 3 + .               ",
"                          . !.# 3 3 3 0 3 0 3 3 3 3 3 3 0 a 1 ; 3 3 3 { j 3 3 3 3 3 3 3 3 3 .                 ",
"                            ~.) 3 3 3 a 3 a 3 3 3 3 3 3 3 3 3 3 3 3 3 3 3 3 3 3 3 3 3 3 3 . .                 ",
"                            . {.= 3 3 3 3 3 3 3 3 3 3 3 3 3 3 3 3 3 . + 3 3 3 3 3 3 3 3 . .                   ",
"                              . ].3 3 3 3 3 3 3 3 3 3 3 3 ^.3 3 3 3 . /.3 3 3 3 3 . . . .                     ",
"                              (._.3 3 3 3 3 3 3 3 3 3 3 3 :./ . . . | h 3 3 3 3 . .                           ",
"                                <.3 3 3 3 3 3 3 3 3 3 3 s = p @ [.3 ; g 3 3 3 . .                             ",
"                              . }.[ 3 3 3 3 3 3 3 3 3 3 1 ! { 2 | 3 0 ! 3 3 3 . . .                           ",
"                            . . I 6 3 3 3 3 3 3 3 3 3 3 ; ! 0 3 3 3 3 3 3 3 3 3 . . . .                       ",
"                          . . C { ! 3 3 3 3 3 3 3 3 3 3 3 0 3 3 3 3 3 3 3 3 3 3 3 3 . . .                     ",
"                        . . s ; 3 ; 3 3 3 3 3 3 3 3 3 3 3 3 3 3 3 3 3 3 3 3 3 3 3 3 3 . . .                   ",
"                        . . { 0 3 3 3 3 3 3 3 3 3 3 3 3 3 3 3 3 3 3 3 3 3 3 3 3 3 3 3 3 . .                   ",
"                        + |.j 3 3 3 3 3 3 3 3 3 3 3 3 3 3 3 3 3 3 3 3 3 3 3 3 3 3 3 3 3 3 . .                 ",
"                      . . 1.3 3 3 3 3 3 3 3 3 3 3 3 3 3 3 3 3 3 3 3 3 3 3 3 3 3 3 4 3 3 3 . .                 ",
"                      . . p 3 3 3 3 3 3 3 3 3 2.3 3 3 3 3 3 3 3 3 3 3 3 3 3 3 3 3 3 3.3 3 3 . .               ",
"                      . 4.h 3 3 3 3 3 3 3 3 3 5.3 3 3 3 3 3 3 3 3 3 3 +.. 3 3 3 3 3 . 3 ! 3 3 .               ",
"                      . 6 { 3 . . 3 3 3 3 3 3 . 3 3 3 3 3 3 3 3 3 3 3 L 6.. 3 3 3 . / 3 a 3 3 .               ",
"                    . . ` 3 3 w k 3 3 3 3 3 F . 3 3 3 3 3 3 3 3 3 3 3 t ^ 7.. k . + 8.3 3 3 3 . .             ",
"                    . | ! 3 3 f 9.. . 3 3 . 0.[.3 3 3 3 3 3 3 3 3 3 3 ] = & a.u } b.h 3 3 3 3 . .             ",
"                    . & 0 3 3 = 3 s . k c.e ] e 3 0 3 3 3 3 3 3 3 3 0 j 3 3 ! R = e 0 3 3 3 3 3 .             ",
"                    . 3 a 3 a | a t 6 d.= = } g 0 3 3 3 3 3 3 3 3 3 3 3 3 3 3 1 2 3 3 3 3 3 3 3 .             ",
"                    . . ; 3 3 j j a { ] & 0 0 ! 3 3 3 3 3 3 3 3 3 3 3 3 3 3 3 3 3 3 3 3 3 3 3 3 .             ",
"                    . . ] a 3 3 3 3 3 0 3 0 a 0 3 3 3 3 3 3 3 3 3 3 3 3 3 3 . . . . 3 3 3 3 3 3 .             ",
"                      . 3 3 3 3 3 3 3 3 3 3 3 3 3 . . . . 3 3 3 3 3 3 . . . . e.f.. . 3 3 3 3 3 .             ",
"                      . . 3 3 3 3 3 3 3 3 . . . . . g.g.. . . 3 3 h.. . i.j.k.l.j.m.. 3 3 3 3 3 .             ",
"                        . . . . . . . . . . n.o.p.q.l.l.r.s.. . . . . t.u.v.w.u.v.s.. . 3 3 3 + .             ",
"                        . . + x.4 / . . .           s.          .                   . . . . . .               "};
