/* XPM */
static char * py2_xpm[] = {
"55 55 302 2",
"  	c #071418",
". 	c #000000",
"+ 	c #120F0F",
"@ 	c #040303",
"# 	c #010101",
"$ 	c #070505",
"% 	c #0C0A0A",
"& 	c #0C0914",
"* 	c #090707",
"= 	c #050404",
"- 	c #100E0E",
"; 	c #0C0B0B",
"> 	c #181517",
", 	c #19161A",
"' 	c #070606",
") 	c #080707",
"! 	c #332E3B",
"~ 	c #332D2E",
"{ 	c #332F30",
"] 	c #322C2E",
"^ 	c #322D2E",
"/ 	c #030303",
"( 	c #030202",
"_ 	c #332E2F",
": 	c #332D2D",
"< 	c #342F71",
"[ 	c #322D32",
"} 	c #322D2F",
"| 	c #312C2D",
"1 	c #040404",
"2 	c #020202",
"3 	c #071316",
"4 	c #070E11",
"5 	c #181819",
"6 	c #231F20",
"7 	c #262121",
"8 	c #332E2E",
"9 	c #332E30",
"0 	c #332E47",
"a 	c #332D31",
"b 	c #201C1D",
"c 	c #0A0808",
"d 	c #141111",
"e 	c #060505",
"f 	c #0B0909",
"g 	c #1A1617",
"h 	c #151212",
"i 	c #332D44",
"j 	c #332E40",
"k 	c #322D37",
"l 	c #332D2F",
"m 	c #242021",
"n 	c #1E1A1A",
"o 	c #2E2935",
"p 	c #302B32",
"q 	c #332E37",
"r 	c #322D2D",
"s 	c #332D30",
"t 	c #332E36",
"u 	c #110E11",
"v 	c #332F63",
"w 	c #2B2627",
"x 	c #332F2F",
"y 	c #322D36",
"z 	c #302B2B",
"A 	c #1E1B20",
"B 	c #322D33",
"C 	c #322C31",
"D 	c #322D35",
"E 	c #071114",
"F 	c #322D30",
"G 	c #221E20",
"H 	c #221E1E",
"I 	c #302B2E",
"J 	c #332E3F",
"K 	c #332D37",
"L 	c #332D32",
"M 	c #322D31",
"N 	c #322D34",
"O 	c #312D3B",
"P 	c #322D39",
"Q 	c #322C3C",
"R 	c #201C1C",
"S 	c #242024",
"T 	c #2B2526",
"U 	c #332D33",
"V 	c #322C44",
"W 	c #322C30",
"X 	c #312B32",
"Y 	c #2F2C45",
"Z 	c #322C2F",
"` 	c #342E5D",
" .	c #312B36",
"..	c #322C2D",
"+.	c #332D40",
"@.	c #312C52",
"#.	c #1E1A20",
"$.	c #2A252A",
"%.	c #332E31",
"&.	c #332E34",
"*.	c #312C31",
"=.	c #2E292C",
"-.	c #2F2A2B",
";.	c #302B2F",
">.	c #2D2950",
",.	c #0E0B0B",
"'.	c #242121",
").	c #312C2C",
"!.	c #272325",
"~.	c #080606",
"{.	c #2C2627",
"].	c #2F2929",
"^.	c #322D3F",
"/.	c #312C35",
"(.	c #332D35",
"_.	c #322D3D",
":.	c #312C3E",
"<.	c #2D2829",
"[.	c #322D44",
"}.	c #2C2727",
"|.	c #322C4B",
"1.	c #312C39",
"2.	c #2F292E",
"3.	c #302A41",
"4.	c #322C36",
"5.	c #332D3B",
"6.	c #322D38",
"7.	c #312C2E",
"8.	c #2F2A40",
"9.	c #1E1B1C",
"0.	c #2B2525",
"a.	c #322D4C",
"b.	c #2E2939",
"c.	c #332D34",
"d.	c #332E33",
"e.	c #312B35",
"f.	c #2F2A2D",
"g.	c #322D3C",
"h.	c #2D282C",
"i.	c #332D3A",
"j.	c #322D46",
"k.	c #2F2A36",
"l.	c #332E39",
"m.	c #312C34",
"n.	c #302A2B",
"o.	c #312C38",
"p.	c #302B2C",
"q.	c #332F43",
"r.	c #322E42",
"s.	c #332F52",
"t.	c #332E3E",
"u.	c #332E52",
"v.	c #322D40",
"w.	c #2E2828",
"x.	c #302B31",
"y.	c #131014",
"z.	c #332E41",
"A.	c #332E42",
"B.	c #332E54",
"C.	c #332D42",
"D.	c #2E2929",
"E.	c #2F2B2B",
"F.	c #332E3C",
"G.	c #252125",
"H.	c #322D3A",
"I.	c #2E2A45",
"J.	c #332D4A",
"K.	c #2F292A",
"L.	c #302C2D",
"M.	c #2D282B",
"N.	c #272225",
"O.	c #312C3C",
"P.	c #332E38",
"Q.	c #332E43",
"R.	c #2F2B33",
"S.	c #2F292B",
"T.	c #332E32",
"U.	c #312B2D",
"V.	c #322D3B",
"W.	c #332E4A",
"X.	c #251F1F",
"Y.	c #2E292A",
"Z.	c #332D3C",
"`.	c #312C33",
" +	c #302B33",
".+	c #322E41",
"++	c #312C2F",
"@+	c #332D39",
"#+	c #312B2C",
"$+	c #282325",
"%+	c #302A2A",
"&+	c #312B2E",
"*+	c #322C33",
"=+	c #312C3A",
"-+	c #231E1E",
";+	c #1F1B1C",
">+	c #322C2C",
",+	c #332D4F",
"'+	c #080C0E",
")+	c #312D43",
"!+	c #302B3C",
"~+	c #1B1717",
"{+	c #332E46",
"]+	c #2F292C",
"^+	c #2D282A",
"/+	c #091518",
"(+	c #090808",
"_+	c #191617",
":+	c #2A2729",
"<+	c #332E6A",
"[+	c #2B2626",
"}+	c #332E35",
"|+	c #332E65",
"1+	c #312D2F",
"2+	c #332D4C",
"3+	c #2C272C",
"4+	c #020101",
"5+	c #332F45",
"6+	c #332E45",
"7+	c #302B2D",
"8+	c #322C3B",
"9+	c #322E30",
"0+	c #332F5E",
"a+	c #2F2A2E",
"b+	c #332D41",
"c+	c #332E50",
"d+	c #2F2A2A",
"e+	c #2D292A",
"f+	c #312B37",
"g+	c #322C35",
"h+	c #2D292B",
"i+	c #332F38",
"j+	c #322D3E",
"k+	c #2B262A",
"l+	c #292429",
"m+	c #2E2A5E",
"n+	c #2C272A",
"o+	c #292527",
"p+	c #28232B",
"q+	c #302C4A",
"r+	c #2F2B37",
"s+	c #312D39",
"t+	c #332E56",
"u+	c #0D0B0B",
"v+	c #332E49",
"w+	c #312D38",
"x+	c #312D37",
"y+	c #292531",
"z+	c #332D36",
"A+	c #302B35",
"B+	c #332D38",
"C+	c #302C2C",
"D+	c #322C48",
"E+	c #1C1923",
"F+	c #2C2828",
"G+	c #312B55",
"H+	c #332F32",
"I+	c #322E4C",
"J+	c #322C34",
"K+	c #332E4C",
"L+	c #332D52",
"M+	c #302B39",
"N+	c #312B48",
"O+	c #322D49",
"P+	c #332E48",
"Q+	c #332E57",
"R+	c #332F47",
"S+	c #332E44",
"T+	c #322E33",
"U+	c #322D43",
"V+	c #332E4E",
"W+	c #332F46",
"X+	c #2F2A2C",
"Y+	c #1D1919",
"Z+	c #332E3D",
"`+	c #332E58",
" @	c #0F0D0E",
".@	c #131012",
"+@	c #312D66",
"@@	c #332E67",
"#@	c #332D58",
"$@	c #332E5C",
"%@	c #332F42",
"&@	c #292526",
"*@	c #111F20",
"=@	c #191616",
"-@	c #101D1F",
";@	c #101E1F",
">@	c #0D1B1D",
",@	c #0F1D1E",
"'@	c #050C0D",
")@	c #050B0C",
"!@	c #0A181A",
"~@	c #0C191C",
"{@	c #081519",
"]@	c #091619",
"^@	c #0A171A",
"/@	c #0B191B",
"(@	c #081619",
"_@	c #010202",
":@	c #1A1717",
"<@	c #232020",
"                                                                                                              ",
"                                                                                                              ",
"                                                                                                              ",
"                                                                                                              ",
"                                                                                                              ",
"                                                                                                              ",
"                                                                                                              ",
"                                                                                                              ",
"                                . . . . + @ .                           . . . . .                             ",
"                            . . . # $ % & * = .                         . . . . . .                           ",
"                            . . . - ; > , ' ) .                       . . . . ! . . .                         ",
"                          . . . # ~ { ] ^ / @ @                     ( @ . . ~ _ _ . .                         ",
"                          . . . . : < [ } | 1 2 .   3 4 5 6 @ @     * 7 / _ 8 ~ 9 . . . .                     ",
"                          . . . 8 0 8 ^ a | b c d 2 e f g e / 2 . . h i 8 : j k ^ l . . .                     ",
"                          . . . 8 ~ : : l _ _ m n 2 @ # . # # . . o p : : a q r s t ~ . u .                   ",
"                          . . . 8 : r ~ ~ _ v : b w x ~ _ ~ _ _ _ ~ 8 r ~ [ } r y l ~ . . . .                 ",
"                          # @ . 8 8 : ^ ~ _ r ~ z A 9 ~ ~ r 8 _ : _ 9 r B C ^ l D 9 ~ 0 . . . .               ",
"                          E e . _ ~ _ _ _ : ~ ~ F G H I _ r J K ~ 9 9 s L ] M ^ N O r s P . . .               ",
"                          @ e _ _ : 8 _ r : 8 : Q ] R S T 8 U l 9 9 F M [ r V W X Y Z L `  .. .               ",
"                          1 = _ _ 8 _ _ ..: 8 +.@.] 8 #.$.} } L %.&.} *.=.-.;.... >.] 8 } y : .               ",
"                        . ,.$ '._ _ ~ 8 ).!.~.~.~.~.{.].^.C /.q l (._.:.<.. . . . . ..8 a [.8 .               ",
"                        . e . w _ _ { : }.~.~.r |.1.~.~.2.3.4.5.s U 6.7.. . ....8.. . F ~ N _ .               ",
"                        . e . 9._ ~ { : 0.~.] ^ a.^.] ~.~.b.^.c.~ d.e.. . f...M g.h.. [ L F _ .               ",
"                        . 2 . <._ r _ _ ~.~.r l i.^ _.j.~.k.^ c.~ l.m.. ~ F r D P n.. o.d.c._ .               ",
"                      . . . . p._ ~ _ . ~.a r l q.a r.s.~.I ] t r t.. . ^ (.} u.v.w.. x._ _ _ .               ",
"                        # . . _ 8 _ _ y.~.} r U z.B A.(.~...*.a ^ L . . ~ B.^ C.U D.. E._ _ _ .               ",
"                        % = . ^ a ^ F.G.~.H.l : F U (.a ~.~.I.a ^ J.].. ^ l ~ l } K.. L._ _ _ .               ",
"                        # @ . 8 l.%.s M.~.[ ~ s : ~ l ^ ! N.O.P.} ~ z ..r : r r : n.. -._ _ . .               ",
"                          = . n Q.d.~ R.S.^ K K _ T.s r 9 U.V.W.K r : : ^ : : ] 8 ).X.Y._ . . .               ",
"                          = . . Z.d.l `. +6.k ~ : F.y : ~ ..l .+L : : : ..r r ..~ _ ^ p.. . .                 ",
"                          E * . K %.a B ++P @+~ : %.~ r ^ ^ a [ B a ^ r . : P #+~ _ _ . . . .                 ",
"                            * . K s L 9 ] g.@+~ : ~ r ] ^ l D F k } r . . : $+%+8 _ . . . .                   ",
"                            + . . : c._ ~ M K 9 : } Z &+] F E.a *+=+. . ).z -+~ _ _ . . .                     ",
"                            * H . l K _ ~ ^ ^ T.r . S.;+*.] . . . . . >+..,+_ ~ _ . .                         ",
"                          '+f . . l l.8 9 } l T.r . . . . . . ^.)+!+W ] r ~ _ ~ _ . . .                       ",
"                          ' ~+. ^ s l.: _ ~ {+c.r r ]+^+....r F a Z C ..s : : : 8 . . . /+                    ",
"                          (+. . ^ ! T.^ ~ l s l : r _+:+r ] : } a } M ] F r : r r <+[+. .                     ",
"                        # . . : a }+|+: 8 9 M ~ r 7.1+r ^ r r _ 9 l T.F y r : r r ^ 2+3+. .                   ",
"                        4+. ..r C.a _ r : 5+6+~ ..7+^ ~ r U 8 ~ _ l 9 4.^ r : ~ l : r 8+. . .                 ",
"                      . . . ..: y 9+_ : 8 }+^ r >+p.: _ ~ 0+~ : : 9 7+] ^ r r ~ a ~ r r #+. . .               ",
"                      . . a+] ~ f.^ _ ~ { P.b+c+U.d+: : d.^ a } : d.e+] C r U : l ~ ~ ^ ..f+. .               ",
"                      . . F g+..h+r _ ~ i+}+@+j+W . : : ~ r N s : q k+] ] ..y } ~ s . . l+: m+.               ",
"                      . . y *+n+o+r [ F [ U (.... . ~ : : ~ r ~ ~ . p+n+>+.._.N [ }+. W =.: q+.               ",
"                      . _ K *+r+w . @+] s+t.U ... | 8 : ^ s r ^ l . . p.>+..t+U [ a . >+n.: _ . .             ",
"                    u+. _ v+w+x+l . ]+y+*+i.] . . %+%.r U i B l s H.. . . ..O ..C . . U...: _ . .             ",
"                    . . _ %.N B ^ . . . . . . . ..`.L } P ~ L ~ P.z+P `.. . . . . . A+..Z : _ . .             ",
"                    . . _ %.d.B+C+*+F . . r >+D+^ ~ s : l.r ~ : s } k } Z E+Y.d+F+d+| G+M : _ . .             ",
"                    u+. _ H+~ J I+....J+r r 7.P N l r ~ B+r ~ : ~ ^ K+b+L+M+l ..r : N+O+P+Q+_ . .             ",
"                    u+. _ l U R+K+@+..] ..r ~ : S+M r M }+: : s a } V.F Z.8 r ..r _ T+U+V+W+_ . .             ",
"                    . . _ F l.^ } ~ ^ W : r : 6+a.@+K B.J.: ^ [ a s s r M r : X+p._ _ _ _ _ { . .             ",
"                    . . Y+[ T+r ..r ^ D r ~ N @+).. . . . . . j+l F ^ Z+`+Y+.  @.@. . _ _ _ { . .             ",
"                      . . +@Z ^ *+@@g.y D #@. . . . . . H . . . $@J.. . . . . . . . . . %@_ _ . .             ",
"                      . . . &@}.. . . . . . . . . . *@*@. . . . =@. . . -@;@>@,@;@. . . . . . . .             ",
"                      . . . . . . . . . . . . '@)@!@,@,@~@{@. . . . . ]@^@/@(@^@/@{@. . . . . . .             ",
"                        . . _@. . . . . . .         {@          .                   . :@<@. . .               "};
